<svg width="256" height="256" viewBox="0 0 256 256" fill="none" xmlns="http://www.w3.org/2000/svg">
<rect width="256" height="256" rx="128" fill="white"/>
<path d="M128 145.379C138.383 145.379 146.8 136.734 146.8 126.069C146.8 115.404 138.383 106.759 128 106.759C117.617 106.759 109.2 115.404 109.2 126.069C109.2 136.734 117.617 145.379 128 145.379ZM128 145.379V160.828M78.18 44C69.72 68.1379 78.18 94.2069 98.86 108.69M98.86 108.69C76.3 98.069 49.98 103.862 34 123.172M98.86 108.69L112.02 116.414M177.82 44C186.28 68.1379 177.82 94.2069 157.14 108.69M157.14 108.69C179.7 97.1035 206.02 102.897 222 123.172M157.14 108.69L143.98 116.414M172.18 212C147.74 208.138 128.94 186.897 128 160.828M128 160.828C126.12 185.931 108.26 207.172 83.82 211.034M142.1 63.3103C132.7 61.3793 123.3 61.3793 113.9 63.3103M175 169.517C181.58 162.759 186.28 154.069 189.1 145.379M66.9 145.379C69.72 154.069 74.42 162.759 81 169.517" stroke="black" stroke-width="18" stroke-linecap="round" stroke-linejoin="round"/>
</svg>
